<?xml version="1.0" encoding="UTF-8"?>
<svg width="240px" height="324px" viewBox="0 0 240 324" version="1.1" xmlns="http://www.w3.org/2000/svg" xmlns:xlink="http://www.w3.org/1999/xlink">
    <!-- Generator: Sketch 62 (91390) - https://sketch.com -->
    <title>peep-19</title>
    <desc>Created with Sketch.</desc>
    <g id="Introduction" stroke="none" stroke-width="1" fill="none" fill-rule="evenodd">
        <g id="variations" transform="translate(-606.000000, -1406.000000)">
            <g id="images" transform="translate(126.000000, 110.000000)">
                <g id="a-person/bust" transform="translate(480.000000, 1296.000000)">
                    <g id="body/Polo-and-Sweater" transform="translate(31.056338, 135.052838)" fill-rule="evenodd">
                        <path d="M20.4452113,149.828759 C33.3815493,150.191014 45.6017763,150.590677 58.5131847,149.828759 C79.1743115,148.550301 139.807842,150.854865 153.135569,149.828759 C154.141343,149.751324 157.600331,150.854865 157.672373,149.828759 C158.258218,142.68364 158.638077,70.3940087 156.897444,65.4199637 C155.15681,60.4459187 146.564979,36.5350685 135.617303,25.3854951 C132.564697,22.3733307 127.919382,21.2065704 125.353326,17.725631 C123.140829,13.9298846 123.312712,11.7020609 121.127725,9.70501958 C120.179554,8.83840687 117.943398,8.48708054 116.281796,7.28418787 C114.611092,5.62318591 116.192937,1.96682583 115.507162,-0.346191781 C114.093782,-6.1215499 108.886669,-9.8267319 103.195331,-10.69982 C95.2850412,-12.59334 86.9341145,-10.8030512 83.1450972,-4.58706945 C81.7347203,-2.27330922 82.4853076,0.539084016 80.7506831,4.24666145 C80.8744859,7.04853229 77.6046972,7.72548728 75.6502606,8.83571037 L71.768936,12.7599263 C59.8111895,19.4905877 45.7442746,23.1251037 35.2668803,32.1679374 C26.358993,41.2080235 17.4988521,51.6567593 13.5464577,63.8876008 C12.7282183,67.2203836 12.4611761,70.6649706 12.1220915,74.0704579 C11.1540634,84.0225205 8.4585,93.681863 6.13878169,103.375867 C3.49371127,115.589589 1.02807764,128.554906 4.59300722,140.884237 C5.62082412,143.493779 18.1054225,149.70681 20.4452113,149.828759 Z" id="ðŸŽ¨-Background" fill="#FFFFFF"></path>
                        <path d="M82.4597535,-3.59189824 C82.5632746,-3.93027006 83.0092606,-3.83516243 83.0430634,-3.51369863 C83.3789789,-0.326536204 82.9564437,3.00434442 82.5508099,6.17037182 C82.3564437,7.69843444 82.2442606,9.28778865 81.9484859,10.7945049 C81.9104577,10.9553425 81.8745423,11.1178708 81.8407394,11.2787084 C81.9379225,11.4518043 82.2254577,11.6462466 82.3625704,11.7793973 L82.958971,12.3594912 L84.1541197,13.516908 C86.4930634,15.7825832 88.8315845,18.0501605 91.1703169,20.316047 L94.6034155,23.6448141 C95.7803873,24.7858943 97.1177113,25.8787867 98.1505986,27.1511155 C98.710669,27.8420196 98.8372183,28.6895342 98.2858099,29.4292603 C98.0132746,29.7948963 97.5233451,30.0611977 97.0266549,30.1161487 C97.2210211,30.3866771 97.3710211,30.693135 97.4660915,31.0336204 C97.6604577,31.7268493 96.9592606,32.5783796 96.2134859,32.2888297 C95.3663028,31.9633503 94.6667958,31.3800235 93.8048239,31.1010411 C92.9344014,30.8178317 91.9881338,30.763092 91.0858099,30.9150528 C90.6717254,30.9847984 90.2660915,31.0885714 89.8710211,31.2196086 C94.0986972,33.1661448 98.6724296,34.2841879 103.337218,34.4446027 C104.287923,34.4765166 105.236725,34.4636243 106.18088,34.4004305 C107.769824,34.2966575 109.347782,34.0559295 110.898486,33.667045 C112.117711,33.3605871 113.324049,32.9757182 114.494472,32.5107476 C115.06912,32.2824892 115.637218,32.0311937 116.186725,31.7458708 L116.234831,31.7173897 C116.35905,31.6397223 118.654441,30.3374279 118.694472,30.1417221 C118.734503,29.9460163 118.734503,29.87784 118.659816,29.7074708 C118.610025,29.5938914 118.516063,29.4979539 118.377931,29.4196581 C117.668696,29.1164024 116.933963,28.8341466 116.159261,28.8290254 C114.375951,28.8184579 112.430176,30.1374951 110.955739,31.0357339 C109.335317,32.0227397 107.845669,33.176501 106.286514,34.2461448 C106.250599,34.2712955 106.210669,34.2820744 106.17243,34.2820744 C106.007852,34.2820744 105.855528,34.0789667 105.961162,33.920454 C107.078636,32.2745042 108.586899,30.9040587 110.164612,29.7074708 L110.80035,29.230737 C112.245334,28.1527235 113.935458,26.9588083 115.692359,26.6986145 C117.844965,26.381589 120.093063,27.7238748 122.013486,28.5098865 L125.414683,29.9026849 C126.021021,30.1499648 126.680387,30.3613151 127.290739,30.642411 L125.865423,26.1810328 C125.153252,23.9500969 124.442937,21.7185675 123.739542,19.4854403 L123.603055,19.0479479 C122.902382,16.7811599 122.259113,14.4231525 121.092148,12.3523679 C120.813275,11.8556947 120.494261,11.3886106 120.179472,10.9170881 C119.852007,10.4290802 119.729472,9.89013699 119.317711,9.45454403 C118.502218,8.59012133 117.333697,8.08288063 116.218204,7.75127202 C115.945669,7.6709589 116.026162,7.31166341 116.281796,7.28418787 C117.426525,7.16351367 118.518032,7.43059358 119.552484,7.9136075 L119.982434,8.11874867 C120.960636,8.58174975 121.914401,9.01237808 122.640739,9.84342857 C124.296934,11.7413796 125.157035,14.1310906 125.947198,16.4893748 L126.158556,17.122544 C126.45412,17.0253229 128.463275,17.6382387 128.714683,17.7838591 C136.246585,20.9691194 142.047993,26.8993973 146.290246,33.8485949 C150.938134,41.463546 153.468908,50.1648376 155.558345,58.7754599 C156.203134,61.4327671 156.819824,64.098317 157.412218,66.7697847 C154.772852,67.7857456 151.967641,68.3172916 149.496866,69.7485558 C148.555669,70.2936282 149.40581,71.7553268 150.349754,71.2085636 C152.663979,69.86818 155.299965,69.3729863 157.777077,68.4316321 C159.120106,74.6163757 160.314824,80.8349354 161.315387,87.0794912 C164.389542,106.244736 166.33088,125.722568 166.208345,145.149886 C166.206232,145.579139 166.079683,146.058693 165.844965,146.470826 C165.9825,146.403405 166.090246,146.322881 166.151514,146.225871 C166.93088,145.001941 168.885106,146.137104 168.101303,147.367162 L167.986835,147.545426 C167.39867,148.452603 166.849593,149.145752 165.815599,149.657988 C164.773838,150.173894 163.645669,150.260548 162.496585,150.290137 C158.590246,150.393065 154.681162,150.460063 150.77081,150.50825 C150.234613,146.323937 150.016585,142.099679 149.277782,137.939883 C149.087852,136.870239 147.458768,137.323585 147.648063,138.389425 C148.361514,142.406348 148.589894,146.484141 149.087852,150.52854 C140.727993,150.618575 132.363486,150.619632 124.009965,150.643092 C112.68919,150.67638 101.369871,150.65287 90.0496021,150.646473 L85.197993,150.644994 C72.1205282,150.644994 59.0428521,150.602724 45.9655986,150.51607 L42.8555282,150.49409 C41.6183451,143.198067 40.7762324,135.839695 40.7605986,128.425526 C40.7582746,127.337706 39.0681338,127.335593 39.0704577,128.425526 C39.0860915,135.831452 39.9189085,143.190669 41.1446831,150.484579 C38.0483451,150.471053 34.9534859,150.482254 31.8569366,150.592157 L30.2808717,150.648328 C27.1275086,150.756324 23.9677817,150.82286 20.8203169,150.571233 C17.3259507,150.290137 13.7916549,149.647632 10.6585563,148.001213 C9.2475,147.258317 8.00503521,146.30872 6.94320423,145.192157 C8.02257042,144.564023 9.11735915,143.961464 10.1629225,143.277112 C11.0694718,142.68364 10.2237676,141.219194 9.30982394,141.817315 C8.1831338,142.554928 6.99876761,143.197221 5.83869718,143.87946 C4.99869718,142.758035 4.30933099,141.513393 3.78580986,140.170685 C2.95975352,138.05063 2.64073944,135.77016 2.36397887,133.52562 C2.03672535,130.88184 1.90130282,128.216501 1.90130282,125.553699 C1.90130282,119.952916 2.49073944,114.369041 3.31278169,108.83589 C4.09888089,103.535023 5.13800441,98.2768905 6.23638571,93.0354132 L6.38651408,92.3207671 C7.4703169,87.168047 8.50341549,82.0005323 9.74566901,76.8837417 C10.894331,72.1522427 12.2217254,67.4429354 13.8036972,62.8247202 C15.2117958,63.6956947 16.6853873,64.4576125 18.0715141,65.3649393 C18.9844014,65.962638 19.8322183,64.4992485 18.9246127,63.9051429 C17.4457394,62.9369472 15.8684155,62.1323366 14.3760211,61.1863327 C16.1449648,56.2411585 18.2213028,51.4113816 20.710669,46.7855577 C25.6963732,37.5220744 32.4148944,29.234818 41.0198239,23.1185519 C45.3273592,20.0579883 50.0534155,17.5536986 55.0163028,15.7316477 C60.076162,13.8719765 65.3196127,12.8530568 70.6815845,12.4347945 C70.8346914,12.4226605 70.9206137,12.5644188 70.9143403,12.6954947 L70.9120775,12.7199061 L71.1233451,12.7539335 C71.2015141,12.2234442 71.3620775,11.7096517 71.6684155,11.2385519 C72.3655986,10.1648924 73.6879225,9.47589041 74.7442606,8.8164775 L74.9947089,8.66060691 C76.2514907,7.88131024 77.5778345,7.11358855 79.0395423,6.84035225 C79.0902465,6.83168689 79.1217254,6.88452446 79.0879225,6.92489237 C78.1239911,8.0305117 76.8913784,8.87527283 75.7617168,9.81042254 L75.5020578,10.0270252 C74.5658748,10.7977781 73.2600352,11.6725479 73.2252465,12.9608454 C73.1853169,14.4785519 73.495669,16.0571272 73.6078521,17.5706067 C73.7198239,19.0794364 73.7977817,20.586364 73.8379225,22.0996321 C73.9839085,27.5209785 73.8085563,32.944227 73.3287676,38.344227 L75.4497688,36.9236558 C78.7505669,34.713237 82.0623219,32.509007 85.4428521,30.4395147 C87.4881338,29.1864188 89.7867254,28.1146614 92.2372183,28.1634834 C92.923838,28.175953 93.6991901,28.275499 94.4430634,28.4868493 C93.6423592,27.7281018 92.8754577,26.9207436 92.0916549,26.1577691 C90.8005986,24.9000235 89.5097535,23.6427006 88.2191197,22.3872798 L84.4971919,18.7604031 L80.773838,15.1335264 C79.6205282,14.0070294 78.2682042,12.9695108 78.3907394,11.1941683 C78.4902465,9.77812133 79.2104577,8.36841487 79.7027113,7.00309198 C79.7724296,6.8065362 79.8358099,6.61209393 79.8949648,6.41976517 C80.8881338,3.11847358 81.452007,-0.303499022 82.4597535,-3.59189824 Z M130.563486,138.0538 C129.793627,137.283217 128.598275,138.478403 129.368556,139.249198 L129.775837,139.654989 C130.456099,140.333904 131.130482,141.033697 131.601253,141.87297 L131.670317,141.999922 C132.17757,142.962834 133.637007,142.109401 133.129542,141.146489 C132.502289,139.956376 131.504472,138.995577 130.563486,138.0538 Z M97.5778521,137.836321 C95.1269366,137.36818 92.7647535,137.36818 90.313838,137.836321 C89.2467254,138.040274 89.6986268,139.670207 90.7632042,139.466888 C92.9067254,139.057292 94.9847535,139.057292 97.1284859,139.466888 C98.1913732,139.669785 98.6466549,138.040697 97.5778521,137.836321 Z M64.4781338,120.793033 C63.4234859,120.525675 62.9734859,122.156031 64.0289789,122.423389 L64.5486177,122.553808 C66.3150978,122.990509 67.9975094,123.315898 69.8325,122.910552 C70.880151,122.678831 70.4565231,121.088048 69.4247279,121.271685 L69.3831338,121.279984 C67.6851761,121.655131 66.1209507,121.209393 64.4781338,120.793033 Z M123.262289,109.810638 C122.481866,109.051679 121.285458,110.24602 122.067148,111.006035 C123.04257,111.954998 124.192077,112.676125 125.585176,112.714591 C126.656965,112.744571 126.672142,111.104106 125.63313,111.026241 L125.585176,111.023789 C124.651585,110.997793 123.907711,110.43856 123.262289,109.810638 Z M23.7922183,105.294928 C24.7653169,104.808188 23.9103169,103.349448 22.939331,103.835131 L17.0982042,106.756626 L17.0982042,106.756626 C16.1251056,107.243366 16.9801056,108.702528 17.9510915,108.216634 L23.7922183,105.294928 L23.7922183,105.294928 Z M139.214472,105.667538 C138.126444,105.636892 138.127289,107.327695 139.214472,107.358341 C140.236796,107.386873 141.284472,107.774278 142.195246,108.216634 C143.169613,108.690059 144.02757,107.232587 143.048345,106.756626 C141.857641,106.178372 140.550528,105.704736 139.214472,105.667538 Z M84.6372887,97.5039217 C85.5317958,96.8958669 84.6871479,95.4299413 83.7841901,96.0439139 C82.5521127,96.8812485 81.4357805,97.8709579 80.2233194,98.7336884 L79.8901056,98.9656204 C78.9955986,99.5736751 79.8402465,101.039178 80.7432042,100.425628 C82.0870775,99.5119609 83.2934155,98.4171663 84.6372887,97.5039217 Z M147.489401,85.2153814 C146.401796,85.2149589 146.400106,86.9057613 147.489401,86.9061839 L147.695629,86.9055533 C148.593327,86.900505 149.539523,86.8756974 150.374353,87.2346001 L150.470176,87.2777378 C151.448768,87.7389041 152.30757,86.2816438 151.323275,85.8179413 C150.099401,85.2413777 148.819754,85.2160157 147.489401,85.2153814 Z M53.6274361,84.0075368 L53.7694014,83.9542544 C54.7855986,83.5892524 54.3474296,81.9546693 53.3200352,82.3241096 C51.7718662,82.8805949 50.5674296,83.9316399 49.2244014,84.8438278 C48.3294718,85.4518826 49.1741197,86.9173855 50.0772887,86.304047 C51.2344815,85.5177947 52.3111224,84.5223012 53.6274361,84.0075368 L53.6274361,84.0075368 Z M117.02218,79.6088088 L117.250035,79.4867319 C118.217641,78.9885793 117.363486,77.5292055 116.397148,78.0267241 C115.630054,78.4215648 114.943627,78.9468839 114.191041,79.365448 L113.963134,79.4875773 C112.995739,79.9855186 113.849683,81.4448924 114.816232,80.9475851 C115.583326,80.5525522 116.269754,80.0272157 117.02218,79.6088088 L117.02218,79.6088088 Z M91.3101188,63.2316628 L91.1360915,63.063546 C90.3582042,62.3016282 89.1622183,63.4963914 89.9409507,64.2591546 C91.8858924,66.1634087 94.1852364,67.6092207 96.5048319,69.0070465 L96.9267254,69.2607593 C97.8615845,69.8218943 98.7123592,68.3606184 97.7798239,67.8007515 L97.1606632,67.428364 C95.0983245,66.1842047 93.060097,64.8999058 91.3101188,63.2316628 L91.3101188,63.2316628 Z M44.539331,61.6532055 C45.194698,60.8018766 43.7694752,59.9687114 43.1033568,60.7704419 L43.0798944,60.799773 C42.397674,61.6857534 41.5881959,62.4878607 40.7421698,63.2198387 L40.5831338,63.3562661 C40.0794718,63.7848845 39.1627817,64.7032016 38.4552465,64.7636477 C37.3794718,64.8551624 37.3697535,66.5468102 38.4552465,66.4544501 C39.5500352,66.3612446 40.4920775,65.5904501 41.3191901,64.9299804 C42.522993,63.9689706 43.5998239,62.8731194 44.539331,61.6532055 Z M134.45757,55.4938239 C135.242909,54.7558059 134.082881,53.581117 133.290453,54.2732205 L133.262641,54.2984266 C131.794965,55.6776986 129.683768,56.047773 127.794401,56.5154912 C126.73912,56.7771429 127.186162,58.4079217 128.243768,58.1460587 L129.10449,57.9334671 C131.035237,57.4514316 132.972547,56.8900274 134.45757,55.4938239 Z M100.985176,44.8288767 C99.9305282,44.5606732 99.4805282,46.1910294 100.536021,46.4592329 C102.328627,46.9149041 104.026585,47.5039374 105.688204,48.321863 C106.66088,48.8003601 107.518204,47.3428885 106.541303,46.8618552 C104.753556,45.9817926 102.915317,45.3196321 100.985176,44.8288767 Z M118.250577,9.18629824 C118.225225,9.11021213 118.305718,9.02355851 118.383676,9.0508227 C120.280424,9.75828399 119.272119,12.2434102 118.682794,13.7310234 L118.57593,14.0029714 C117.65269,16.3870027 116.362056,18.707629 114.955014,20.8422669 C113.482479,23.0762395 111.847268,25.2151045 110.076845,27.2229323 C109.30877,28.0946348 108.51215,28.9412885 107.688766,29.7627447 L107.378746,30.0696094 C106.546563,30.8877464 105.473324,32.3249284 104.182268,32.1664157 C102.792127,31.9992376 102.016775,30.5136564 103.030859,29.3850458 C103.747268,28.5861417 104.740225,27.9497659 105.540718,27.2229323 C106.335296,26.5041299 107.10431,25.7625018 107.854099,24.9995272 C109.388113,23.4334215 110.841634,21.7785487 112.170507,20.0349088 C113.45574,18.3487297 114.68564,16.6159257 115.803977,14.8143798 L116.026141,14.4531476 C116.877338,13.0518951 118.842338,10.9912297 118.250577,9.18629824 Z M51.0508099,26.8970724 C50.1503873,26.2811977 49.3040493,27.7458552 50.1977113,28.3568689 C51.8409507,29.480407 53.2866549,30.8415029 55.0653169,31.7655264 C56.0176459,32.2604635 56.8645722,30.8421411 55.9521632,30.3240588 L55.9184155,30.3057299 C54.1410211,29.3819178 52.6932042,28.0197652 51.0508099,26.8970724 Z" id="ðŸ–-Ink" fill="#000000"></path>
                    </g>
                    <g id="head/Afro" transform="translate(78.591549, 38.043053)" fill-rule="evenodd">
                        <path d="M41.2807516,17.4727681 C73.302566,15.8974193 87.752586,38.4522883 88.6872626,48.5264802 C89.3360741,55.5195428 85.2059658,63.5798475 85.2059658,69.8287286 C85.2059658,73.0183935 89.1097978,79.8662272 87.2924216,84.5151557 C83.2473506,94.8626259 74.6825522,106.346395 63.7684029,106.346395 C52.8542535,106.346395 38.6502019,109.365888 26.5905399,92.091848 C25.4590001,90.471051 11.1469381,81.2592089 9.75651008,72.5058517 C6.29306859,50.7019613 18.4318308,18.5968462 41.2807516,17.4727681 Z" id="ðŸŽ¨-Background" fill="#FFFFFF"></path>
                        <path d="M39.7711056,3.43596399 C40.9161761,2.12559217 42.8492746,1.60144344 44.5668803,1.70289159 C47.0619507,1.85083679 49.2318803,3.39158043 51.7142746,3.50570959 C54.3168803,3.62617926 56.8288521,2.7237135 59.438007,3.14218708 C61.0373028,3.40003444 62.6218099,4.14187397 63.6464577,5.39306771 C67.1957535,4.3764728 71.0492746,5.72277417 73.309838,8.66265675 C76.0985704,8.22938865 79.1323732,10.0768016 79.9858944,12.7649659 C83.5288521,12.8790951 86.8732183,15.7259836 87.2682887,19.2935765 C88.683993,19.6676665 89.9133592,20.6443162 90.6675845,21.9354552 C91.5443451,23.4318153 91.6901197,25.1479796 91.531669,26.834555 C93.1985704,27.6862967 94.0457535,29.5165902 94.2675845,31.4525589 C95.7908239,32.5896235 96.4520915,34.6333808 96.1415282,36.563009 C97.3077254,37.2203084 97.9100493,38.7504845 97.9035,40.1158074 C97.897162,41.3902497 97.5593451,42.5190716 98.0346972,43.748919 C98.4581501,44.8443079 98.6101718,45.7572174 98.3772467,46.9046105 L98.3535,47.0163945 C98.3123028,47.2034395 98.2776549,47.3828759 98.2465986,47.5597761 C98.5620211,47.836645 98.8288521,48.1836822 99.0291338,48.5873613 C99.7596972,50.0625863 99.6508944,51.745146 99.0937817,53.2412947 C99.3377958,54.1940618 99.3067394,55.2005119 98.9461056,56.1162928 C99.6215282,57.0895609 99.976669,58.2832673 99.8723028,59.52178 C99.7552606,60.9084493 99.1223028,62.1501323 98.1625141,63.068238 C98.4181479,64.9623593 97.6482887,67.0088642 96.2562465,68.3424845 C96.4537817,69.4763789 96.2832887,70.6648016 95.6632183,71.7397292 C95.2212465,72.505874 94.6263169,73.0765198 93.9399085,73.474281 C93.9625141,74.1068524 93.8769507,74.7537957 93.6665282,75.402007 C93.3743451,76.3015139 92.8795563,77.1302184 92.2284296,77.7976626 C92.6169507,80.2827194 91.1296268,83.0402067 88.5118099,83.7374513 C88.2918803,83.7959953 88.0820915,83.8228368 87.8811761,83.8270638 C87.6211056,86.2172243 87.0532183,88.5742027 86.1739225,90.8126137 C83.9387113,96.5125198 79.8739225,101.49616 74.5732183,104.605123 C71.9513873,106.141639 69.0063169,107.194164 65.9999789,107.633772 C63.8365986,107.950798 61.7556127,107.872598 59.583993,107.657021 C56.8584296,107.384379 54.1204014,106.976473 51.4711056,106.27479 L51.0449848,106.161466 C49.9467152,105.867131 48.7887627,105.527504 47.8373028,104.934829 C46.7725141,104.271189 46.2192042,103.248254 45.9741338,102.043557 C45.8373952,101.373048 46.2619407,100.65188 46.9956844,100.637996 L47.0429366,100.638077 C47.2035,100.641459 47.3627113,100.635372 47.5239237,100.625227 L47.6452606,100.616942 L47.6513873,100.616942 C47.659838,100.614829 47.6642746,100.614829 47.6725141,100.614829 C47.7443451,100.604261 47.8140634,100.583126 47.8837817,100.572559 C48.690993,100.436618 49.396958,100.571423 50.1549481,100.823641 L50.2499789,100.855768 C51.5260352,101.295377 52.7915282,101.703283 54.109838,102.005514 C55.4725141,102.316199 56.8520915,102.563479 58.2358944,102.757921 L58.3732183,102.774829 L58.4154718,102.781169 L58.4365986,102.783283 L58.4365986,102.783283 C58.4408239,102.783283 58.4450493,102.783283 58.4492746,102.785396 L58.8570211,102.836121 L58.8570211,102.836121 C59.1783592,102.874164 59.4992746,102.90798 59.8204014,102.941796 C60.4119507,103.000974 61.0035,103.047471 61.5950493,103.081287 C71.8056127,103.65616 80.3809648,95.614281 82.968993,85.9724806 C83.9070211,82.4830873 83.9682887,79.0021479 83.6915282,75.5190951 C83.6027958,75.2654748 83.5499789,74.9843789 83.5520915,74.6758074 C83.5520915,74.5151812 83.5607535,74.3566685 83.5711056,74.1960423 C83.2269507,70.8271186 82.6290634,67.4560814 82.2549085,64.0744767 C81.8177958,60.1243397 81.5746268,56.1511656 81.6633592,52.1754552 C81.7077254,50.212011 81.9168803,48.2675883 82.1915282,46.3233769 L82.2908239,45.6248642 L82.2908239,45.6248642 C81.0496268,45.3824454 79.8956831,44.7936235 78.9768803,43.9412477 C76.9829366,45.0931068 74.4023028,45.195189 72.4341338,43.9788681 C70.2285,45.3625785 67.1469507,45.4881205 64.9258944,44.1352673 C63.5835,45.0939523 61.8920915,45.5075648 60.2317394,45.1436196 C59.4849085,44.9800344 58.7423028,44.6260227 58.1063873,44.1359014 C57.6523732,44.2160031 57.1924437,44.2470716 56.7350493,44.223189 L56.6406127,44.2760266 L56.6406127,44.2760266 C55.5863873,44.8318779 54.4185,45.1977252 53.2165986,45.1569346 C52.3267394,45.1269229 51.4100493,44.9512908 50.5613873,44.6190481 C49.654838,45.1664454 48.6627254,45.5401127 47.6013169,45.6741088 C46.0512465,45.8696078 44.3784296,45.5265863 43.0892746,44.6469464 C40.7334296,45.9894434 37.8356831,46.196144 35.2928662,45.294101 C34.7720915,46.1764885 34.0514577,46.9373495 33.2076549,47.5238466 C33.3587113,48.065326 33.4068803,48.642735 33.3549085,49.1979523 C33.2695563,50.1118309 33.0405423,50.931236 32.6659648,51.6671577 C33.0608239,52.4888877 33.1795563,53.497874 32.9585704,54.5106646 C32.6435704,55.9550325 31.8035704,57.21151 30.7159648,58.1900618 C30.6200493,60.4950481 29.3564577,62.6563162 27.2999789,63.8569973 C27.1958239,63.9176548 27.0923028,63.9671108 26.988993,64.0117057 C26.8981479,64.1359796 26.7895563,64.2452477 26.6655423,64.3373965 C25.3577958,65.5461088 23.2882183,65.4499444 21.648993,64.7670716 C21.6173028,64.7685511 21.5858239,64.7712986 21.5537113,64.7719327 C20.9682887,64.7867272 20.5692042,64.5584689 20.3323732,64.2224219 C20.0938521,64.2353143 19.8570211,64.260465 19.6185,64.3048485 C18.7478662,64.4675883 17.7929366,64.7803867 17.0049085,65.1863906 C14.959838,66.2387037 14.0133592,68.0985863 13.7302606,70.3346724 C13.4220211,72.7736548 14.1232183,75.2591342 16.0100493,76.90978 C16.9267394,77.7129112 18.0992746,78.2159249 19.2908239,78.4272751 C20.6070211,78.661874 22.0140634,78.0848877 22.9858944,79.2156117 C23.1802606,79.4396431 23.3133592,79.7524415 23.2077254,80.0546724 C22.8781479,80.9972947 22.3351901,81.3587037 21.4858944,81.4897409 C22.7133592,82.9459444 23.9725141,84.3535374 25.3668803,85.6617957 C26.875331,87.0799562 28.4344859,88.4537331 29.7952606,90.0177252 C31.2337817,91.672598 32.5330775,93.4268055 33.4351901,95.4346333 C33.9506831,96.5886059 34.3647676,97.778508 34.8107535,98.9599562 L34.890398,99.1657901 C35.3876476,100.421051 36.0490804,101.631059 35.2837817,102.941796 C34.9795563,103.45749 34.2908239,103.956277 33.6570211,103.87385 C31.8720211,103.645592 31.2741338,102.438782 30.7246268,100.866336 C30.3105423,99.6785472 29.9936408,98.4569425 29.5480775,97.2797213 C29.4646268,97.0618192 29.3737817,96.8460305 29.2785,96.63151 C28.2492042,96.9185237 27.1174437,96.6906881 26.1988521,96.1035569 C25.2173028,96.5387272 24.1299085,96.755784 23.0796972,96.7373965 C21.6735,96.7126685 20.3887817,96.3218818 19.2842746,95.6170286 C19.1963873,95.59378 19.1080775,95.5713769 19.0204014,95.5462262 C17.3401901,96.1899992 15.3724437,96.0750247 13.8511056,95.0315883 C12.8659648,94.3559014 12.1924437,93.4540697 11.8096268,92.4499444 C10.5367394,92.4256391 9.27758451,91.9741949 8.36554225,91.0708838 C7.52807746,90.2415452 7.03857042,89.1714787 6.89321831,88.0595648 C5.79758451,87.842508 4.77040141,87.3126528 3.96483803,86.4201205 C3.29216197,85.6746881 2.88335915,84.7253025 2.74519014,83.7395648 C1.41082394,83.3587115 0.207443662,82.4871029 -0.449809859,81.2718387 C-1.06142958,80.1404806 -1.14973944,78.9131695 -0.850584507,77.7968172 L-0.928119718,77.6852243 L-0.928119718,77.6852243 C-2.30262676,76.9655765 -3.35157042,75.78751 -3.4593169,74.1047389 C-3.48973944,73.6256078 -3.43819014,73.1462654 -3.30826056,72.6927076 C-3.35516197,72.1856783 -3.32516197,71.6788603 -3.19227465,71.1885276 C-5.0408662,69.3899366 -5.71058451,66.5007781 -4.70706338,64.1125198 C-6.51340141,62.1680971 -6.9908662,59.0929503 -5.66621831,56.7852164 C-6.57466901,55.6859836 -7.04157042,54.2847311 -6.96340141,52.788371 C-6.86621831,50.9202458 -6.01058451,49.2884102 -4.98593662,47.7772556 C-5.7465,46.9360814 -6.1521338,45.7630873 -6.12234507,44.6302497 C-6.08030282,42.9880579 -5.20776761,41.5741245 -4.11530282,40.4032438 C-5.06833099,37.5119718 -4.00354225,34.3755335 -1.66480986,32.5452399 C-2.1380493,31.7653573 -2.31340141,30.7994865 -2.15896479,29.8209346 C-1.88875352,28.1111108 -0.606359155,26.9465706 0.777443662,26.0250834 C0.488007042,25.0826724 0.56406338,24.0658661 1.02462676,23.0915413 C1.63941549,21.791737 2.79927465,20.9674708 4.00983803,20.2700149 C4.32251408,17.3871969 7.54223239,14.9249659 10.2422324,16.412872 C9.57251408,14.2676665 11.5015986,11.9512673 13.7199085,11.706101 C14.8056127,8.41326341 18.5513873,6.33780352 21.918993,7.15572916 C23.6408239,4.80128689 26.8457535,3.89480548 29.5668803,4.90484853 C32.5586408,2.61169785 36.2704014,2.27142387 39.7711056,3.43596399 Z M18.4605423,68.090238 C20.5626549,67.9761088 22.1387113,69.6922732 23.2459648,71.2626059 C24.2851901,72.7357174 21.618993,74.2912556 20.8415282,72.6680853 C20.5626549,72.0889855 20.2457535,71.4760697 19.8211056,70.968829 C19.7498028,71.068692 19.6868187,71.1721215 19.6241316,71.278226 L19.5612465,71.385189 C19.5147676,71.4633886 19.4661761,71.5437018 19.4260352,71.6261284 C19.4302606,71.6409229 19.3668803,71.8353652 19.3647676,71.8438192 C19.1915282,72.3700814 18.8133592,72.7082419 18.2980775,72.8900031 C17.6323732,73.1224885 17.0027958,72.6215883 16.7894155,72.0340344 C16.4494859,71.0956391 17.2394155,70.2777135 18.0612465,69.905737 C17.2542042,69.7746998 16.459838,70.0494552 15.8767394,70.670825 C15.796669,70.7574787 15.6612465,70.6877331 15.6572324,70.5799444 C15.5894155,69.1068329 17.1295563,68.1620971 18.4605423,68.090238 Z" id="ðŸ–-Ink" fill="#000000"></path>
                    </g>
                    <g id="face/Smiling" transform="translate(112.183099, 77.354207)" fill="#000000" fill-rule="evenodd">
                        <path d="M30.968993,50.9198978 C29.548794,50.3403012 28.2816173,49.3734958 27.3551889,48.1384646 C27.0331038,47.7091169 26.9495926,47.2557326 27.017159,46.8410547 C27.0931327,46.3747786 27.3688808,45.9521824 27.7449394,45.6687178 C28.1221628,45.3843752 28.5940214,45.2441445 29.0502103,45.3156301 C29.4466117,45.3777469 29.8412104,45.5948709 30.1535058,46.0451781 L30.2187521,46.1352289 C30.7695298,46.8806513 31.4872438,47.4922614 32.3050288,47.8864795 C33.0932406,48.2664417 33.9747757,48.4437847 34.8870208,48.3406561 C36.6244504,48.1443157 37.8219743,47.2043274 39.0948115,45.9278391 C39.2525834,45.7666792 39.4104563,45.6004672 39.5690946,45.4315797 C39.6692778,45.278484 39.8083069,45.1800892 39.962667,45.1284632 C40.1340565,45.0711416 40.327938,45.0743848 40.5055187,45.1363808 C40.6767961,45.1961763 40.8299095,45.309486 40.9325762,45.4602937 C41.0301525,45.6036243 41.0854754,45.7806897 41.0675245,45.9843589 C40.9510195,47.3072301 40.2596776,48.4878363 39.2776553,49.4148615 C38.1869942,50.4444414 36.7412431,51.1567117 35.3801317,51.4065272 C33.8805866,51.6817086 32.3525901,51.4845569 30.968993,50.9198978 L30.968993,50.9198978 Z M36.0875289,30.5120405 C37.6828906,31.482148 40.1137318,33.7442494 38.3974899,36.149264 C36.3773089,38.2698449 33.4687045,35.8384541 32.0353946,34.7388307 C30.7063626,33.8866164 29.2131206,36.0784478 30.4461973,37.0735516 C40.8033244,44.7445605 45.006466,30.7657101 36.8944406,29.3714319 C36.0012775,29.2177885 35.6695544,30.2119271 36.0875289,30.5120405 Z M17.5274577,21.5886716 C17.7037243,19.3998697 21.0359789,18.9028321 21.3674577,21.0687499 C21.6642887,23.0089456 21.3148521,24.7912626 20.4412606,26.5380728 C19.6065423,28.2068947 17.5085456,27.4283107 17.3498837,25.9087021 C17.1372039,23.8717299 17.4178099,22.9502317 17.5274577,21.5886716 Z M42.8930282,20.6196517 C43.3576056,20.0109628 44.0283803,19.5954481 44.8320423,19.8302583 C47.3429577,20.5642779 46.6028873,24.1303914 45.7210563,25.8662114 C45.2419014,26.8088337 43.6930986,27.0478708 42.993169,26.2178982 C41.8523239,24.864411 41.3059859,22.1614521 42.756338,20.8282544 C42.7956338,20.7593542 42.8393662,20.68982 42.8930282,20.6196517 Z M20.4058944,12.0111429 L20.802522,11.9416942 C22.0295218,11.7294045 23.5551549,11.5254176 24.4231479,12.5122544 C24.8835,13.0355577 25.0419507,14.0081918 24.4231479,14.509092 C23.3346972,15.3904227 22.1313169,15.0488806 20.8269507,15.1234873 C19.7520211,15.1852016 18.7189225,15.3631585 17.6835,15.6592603 C15.4119507,16.3087397 13.5610352,17.4944149 11.6209648,18.7963327 C11.3663873,18.9671037 11.1065282,18.6414129 11.228007,18.4032211 C12.3479366,16.208771 14.5182887,14.4061644 16.6922324,13.3073542 C17.8525141,12.7208571 19.1222324,12.2343288 20.4058944,12.0111429 Z M40.6041287,11.0281289 L40.9077055,11.0902829 C44.2113469,11.7811043 48.5035506,13.1610768 50.0679842,16.4073021 C50.1275964,16.8663298 50.0646105,16.9647086 50.0133917,17.0289838 L49.9963385,17.0503723 C49.9541341,17.1052595 49.9204583,17.1809212 49.7215736,17.2433957 C49.6663832,17.2302408 49.6106433,17.216308 49.5543131,17.2015401 C48.8372041,17.0135386 48.2698321,16.7545401 47.720556,16.4857982 L47.1250012,16.192275 C46.4340388,15.8533498 45.7369757,15.5267598 44.9982488,15.2856588 C43.4217423,14.7712438 41.8001698,14.4088706 40.1534741,14.2153715 C39.7965654,14.1734678 39.4528848,14.0529641 39.1817455,13.8464404 C38.92438,13.6504079 38.7277692,13.3789964 38.6381257,13.0182314 C38.5219478,12.5513438 38.5553348,12.1978716 38.8057421,11.7766707 C38.9940329,11.4603578 39.263447,11.2411116 39.5728025,11.115213 C39.888177,10.9868648 40.2472278,10.9566068 40.6041287,11.0281289 Z" id="ðŸ–-Ink"></path>
                    </g>
                    <g id="facial-hair/Full-2" transform="translate(104.577451, 109.479380)" fill="#000000" fill-rule="evenodd">
                        <path d="M52.4221901,23.6127945 C51.6848662,23.3714325 50.9606408,23.0905479 50.2330352,22.8198082 C46.5128239,20.9504149 42.0189507,20.611409 38.1174718,22.1857573 C36.2025423,22.958454 34.4169085,24.3468141 32.4954296,25.2566771 C32.0390915,25.4270254 31.5789507,25.5817339 31.1137394,25.7115029 C30.8285282,25.6121683 30.5433169,25.5064932 30.2602183,25.400818 C28.2221197,24.6323483 26.3050775,23.6844423 24.4438099,22.6416399 C24.2452183,22.3620235 24.0392324,22.090227 23.8178239,21.8292094 C25.1646549,21.6379374 26.4833873,21.3200665 27.6764155,20.9920509 C31.3397958,19.988137 34.7919085,18.3522857 38.4426127,17.3039883 C41.8419085,16.3254364 45.5306408,15.7907202 48.9447254,17.0059843 C50.5651479,17.5829706 51.9912042,18.593225 53.5672606,19.273773 C54.3827535,19.6246145 55.3609225,19.9691155 56.3137394,20.0198395 C55.6989507,21.4929511 54.9214859,22.8688415 53.8588099,24.0143601 C53.3728944,23.9107984 52.8912042,23.7649667 52.4221901,23.6127945 Z M60.349162,12.0747593 C60.0229648,12.3459217 58.6767676,13.2209119 58.2400775,13.7425245 C58.1272606,13.6996204 58.0150775,13.6556595 57.9035282,13.6104305 C57.7114859,13.3745636 57.4285986,13.271002 57.1402183,13.2773425 C55.1270493,12.340638 53.3348662,11.0169511 51.7355704,9.35721722 C50.5989507,8.17999609 49.4348662,6.94782387 47.9158521,6.26516243 C46.1264155,5.45780431 44.3665563,5.82978082 42.4862746,5.95236399 C40.4855704,6.08551468 38.5102183,5.51698239 36.5116268,5.78962427 C35.0496549,5.99040705 33.6806408,6.60966341 32.4975423,7.48254012 C30.0827535,9.26422309 28.4179648,11.7666106 26.3771197,13.9244971 C24.0616268,16.3719335 21.2137394,17.9359256 18.046838,18.7348297 C18.0088099,18.7094677 17.968669,18.6841057 17.9285282,18.6608571 C15.5940211,16.5473542 13.4855704,14.1612094 11.6200775,11.6186654 C9.7989507,9.13529941 4.99683803,-2.04301761 3.83697887,-3.02368297 C3.35528873,-3.43158904 2.82711972,-3.60700978 2.32219014,-3.59221526 C1.40740141,-3.57108023 0.562330986,-2.93491585 0.184161972,-1.93311546 C-0.458091549,-0.229632094 -0.136964789,1.97263796 -0.0862605634,3.75432094 C-0.0228802817,5.93545597 0.12078169,8.1144775 0.348950704,10.285045 C0.575007042,12.4302505 0.875007042,14.5691155 1.2489507,16.6931859 C1.43697887,17.7668454 1.6461338,18.8383914 1.87641549,19.9057104 C1.94824648,20.2417573 2.03909155,20.5418748 2.1489507,20.8208571 C2.26092254,21.3471194 2.38134507,21.8712681 2.51021831,22.3911898 C3.35106338,25.7960431 4.67782394,29.2051233 7.21092254,31.7180783 C9.84754225,34.3367084 13.4306408,36.0761213 16.7581056,37.6316595 C19.9271197,39.113225 23.2482465,40.4299374 26.655993,41.4613268 C29.6158521,42.8034012 32.7848662,43.8643796 35.9665563,44.4223444 C39.4693732,45.0373738 43.1517676,45.0754168 46.534162,43.8580391 C48.196838,43.2599178 49.768669,42.4250841 51.1947254,41.3852407 C53.2165563,40.3348297 55.0355704,38.8913072 56.525007,36.9807006 C59.192706,33.5565513 60.4660235,29.4012411 61.0231856,25.1164508 C61.1657905,24.0197643 61.7019307,19.8165841 61.7440898,19.1621818 C61.8802406,17.0488169 62.0163914,14.9355171 62.1525423,12.8220939 C62.2167676,11.8247319 60.9931056,11.5400431 60.349162,12.0747593 Z" id="ðŸ–-Ink"></path>
                    </g>
                    <g id="accessories/*-None" transform="translate(88.521127, 88.978474)"></g>
                </g>
            </g>
        </g>
    </g>
</svg>